<?xml version="1.0" standalone="no"?>
<!DOCTYPE svg PUBLIC "-//W3C//DTD SVG 20010904//EN"
 "http://www.w3.org/TR/2001/REC-SVG-20010904/DTD/svg10.dtd">
<svg version="1.0" xmlns="http://www.w3.org/2000/svg"
 width="784.000000pt" height="784.000000pt" viewBox="0 0 784.000000 784.000000"
 preserveAspectRatio="xMidYMid meet">
<metadata>
Created by potrace 1.14, written by Peter Selinger 2001-2017
</metadata>
<g transform="translate(0.000000,784.000000) scale(0.100000,-0.100000)"
fill="#000000" stroke="none">
<path d="M3623 7235 c-67 -29 -121 -111 -147 -223 -20 -85 -11 -265 15 -314
14 -27 11 -35 -18 -42 -97 -24 -342 -132 -485 -215 -207 -119 -340 -222 -513
-395 -166 -167 -253 -276 -364 -456 -83 -132 -211 -403 -235 -495 -1 -5 -15
-49 -30 -97 -15 -48 -29 -97 -32 -108 -30 -138 -40 -193 -49 -275 -3 -22 -7
-56 -10 -75 -3 -19 -8 -93 -10 -164 -3 -71 -8 -133 -13 -138 -4 -4 -23 -4 -42
1 -19 5 -55 12 -80 15 -25 3 -54 7 -65 9 -11 3 -42 8 -70 12 -74 11 -88 14
-115 19 -14 3 -86 15 -160 26 -74 11 -142 23 -150 25 -8 2 -33 7 -55 9 -22 3
-56 8 -75 11 -46 8 -56 10 -115 19 -27 4 -61 10 -75 12 -14 2 -65 10 -115 18
-49 8 -108 18 -130 22 -40 7 -162 8 -200 1 -70 -11 -151 -77 -170 -137 -24
-76 20 -184 83 -204 28 -9 28 -21 0 -23 -123 -10 -211 -104 -186 -200 15 -58
117 -128 218 -149 19 -4 40 -6 45 -5 6 2 24 3 40 2 17 0 45 4 63 10 18 6 36 9
39 6 7 -7 -68 -56 -95 -62 -12 -3 -32 -8 -45 -11 -12 -3 -33 -7 -47 -9 -68
-11 -158 -47 -187 -75 -38 -38 -47 -61 -39 -103 16 -79 116 -140 266 -162 20
-3 45 -7 55 -9 49 -9 113 -19 150 -23 61 -8 549 -11 560 -5 5 3 21 7 35 8 56
4 136 14 160 19 14 3 36 8 50 10 52 9 88 17 180 41 52 13 102 26 110 29 70 18
222 74 272 101 26 14 26 14 44 -33 61 -171 199 -453 234 -483 4 -3 9 -12 12
-20 7 -18 136 -201 152 -215 6 -5 27 -30 46 -55 77 -100 243 -255 425 -398 93
-73 465 -286 465 -266 0 4 8 0 18 -8 17 -15 194 -81 307 -114 76 -22 73 -21
120 -29 22 -4 44 -10 48 -14 4 -4 10 -82 12 -172 4 -143 7 -257 19 -686 l3
-93 -126 -82 c-69 -45 -127 -86 -129 -90 -2 -4 -10 -8 -18 -8 -8 0 -14 -4 -14
-10 0 -5 -4 -10 -9 -10 -5 0 -45 -24 -88 -52 l-78 -53 67 -3 67 -3 141 96 c78
52 145 95 148 95 3 0 14 7 24 17 17 15 18 12 19 -78 1 -52 1 -102 0 -112 -2
-13 6 -17 37 -17 21 0 41 2 43 4 2 2 2 47 -1 100 -3 53 -3 96 0 96 5 0 28 -19
115 -92 137 -115 125 -108 188 -108 66 0 68 -4 -28 76 -33 27 -71 59 -85 71
-14 12 -61 51 -105 88 -44 37 -82 69 -84 71 -2 2 -6 61 -8 131 -6 252 -12 471
-17 636 l-5 168 52 -5 c29 -3 66 -8 82 -10 135 -22 413 -22 584 -1 128 16 315
53 354 69 15 7 17 2 18 -35 1 -24 3 -102 4 -174 4 -153 15 -527 19 -672 3
-101 3 -101 -25 -122 -15 -12 -31 -21 -34 -21 -3 0 -11 -5 -18 -11 -7 -6 -97
-66 -201 -135 l-188 -124 71 0 72 0 110 75 c60 41 114 75 119 75 6 0 10 4 10
8 0 5 10 14 23 20 12 7 31 18 42 27 22 16 21 23 27 -173 1 -32 2 -33 42 -30
l41 3 -3 54 c-1 29 -5 57 -8 62 -3 5 -1 9 5 9 7 0 7 8 2 23 -18 46 4 53 45 15
22 -20 75 -65 119 -102 79 -65 81 -66 139 -66 36 0 56 4 51 9 -6 5 -46 39 -90
75 -44 37 -91 77 -105 89 -14 13 -50 43 -80 67 -91 73 -88 67 -90 193 -1 62
-4 153 -5 202 -2 50 -6 218 -10 375 -4 157 -7 289 -8 294 -2 8 37 26 118 56
201 73 491 230 625 337 337 268 541 505 706 818 18 32 36 61 40 62 5 2 14 -7
20 -20 5 -12 43 -85 83 -162 41 -77 100 -191 133 -254 99 -190 149 -256 222
-293 75 -38 171 -29 217 21 39 41 59 107 49 156 -5 24 2 24 28 -2 86 -88 189
-96 259 -21 15 16 23 40 26 77 10 120 -49 248 -145 315 -20 15 -21 16 -3 16
31 0 97 -37 150 -85 104 -95 160 -124 228 -120 92 7 127 79 102 213 -8 41
-104 242 -116 242 -5 0 -9 7 -9 15 0 33 -197 317 -310 447 -102 117 -339 344
-373 357 -6 2 -22 14 -36 27 -37 32 -180 134 -189 134 -4 0 -23 13 -42 28 -33
28 -34 31 -36 108 -2 83 -9 165 -20 249 -9 69 -10 75 -18 115 -3 19 -8 46 -10
60 -3 14 -5 25 -6 25 -1 0 -3 11 -6 25 -11 73 -89 312 -136 420 -89 203 -241
462 -324 551 -13 14 -24 28 -24 31 0 9 -88 106 -185 203 -94 94 -127 124 -210
190 -27 22 -52 42 -55 45 -3 3 -12 10 -21 15 -9 6 -51 34 -93 63 -42 28 -79
52 -82 52 -3 0 -19 9 -35 21 -34 24 -273 144 -309 154 -14 4 -29 11 -35 15
-19 15 -289 99 -367 114 -95 19 -191 36 -238 41 -82 10 -86 12 -100 55 -7 22
-17 40 -22 40 -4 0 -8 5 -8 11 0 16 -62 75 -87 83 -46 15 -66 15 -106 -1 -45
-17 -86 -53 -107 -92 l-13 -25 -15 40 c-18 46 -48 91 -77 117 -19 18 -70 48
-80 47 -38 -1 -45 2 -51 28 -19 77 -77 152 -137 177 -44 18 -72 18 -114 0z"/>
</g>
</svg>
